<svg width="532" height="203" viewBox="0 0 532 203" fill="none" xmlns="http://www.w3.org/2000/svg">
<rect x="268" y="75" width="88" height="80" fill="#F4FDFF"/>
<rect x="31" y="47" width="190" height="118" fill="#F4FDFF"/>
<rect x="416" y="105" width="75" height="78" fill="#F4FDFF"/>
<path d="M392 161.5C395.714 158.461 406.814 147.372 414.294 139.778C416.31 137.731 419.633 137.786 421.571 139.906L430.715 149.907C432.543 151.906 432.446 154.999 430.495 156.88L392 194" stroke="#7398A0" stroke-width="3"/>
<path d="M406.5 137V94C406.5 91.2386 408.739 89 411.5 89H466" stroke="#7398A0" stroke-width="3"/>
<path d="M472.5 88.5H479.5" stroke="#7398A0" stroke-width="3"/>
<path d="M484 89H492.5C495.261 89 497.5 91.2386 497.5 94V117.5" stroke="#7398A0" stroke-width="3"/>
<path d="M275.5 35H286" stroke="#7398A0" stroke-width="3"/>
<path d="M294 35H372C374.761 35 377 37.2386 377 40V130" stroke="#7398A0" stroke-width="3"/>
<path d="M245 87C245 85.5473 245 57.6048 245 39.998C245 37.2366 247.239 35 250 35H268" stroke="#7398A0" stroke-width="3"/>
<path d="M10 7.5H103C107.694 7.5 111.5 11.3056 111.5 16V77C111.5 81.6944 107.694 85.5 103 85.5H10C5.30558 85.5 1.5 81.6944 1.5 77V16C1.5 11.3056 5.30558 7.5 10 7.5Z" stroke="#7398A0" stroke-width="3"/>
<path d="M8.5 192.5C8.5 200 16 200 16 200H220.5V182H140L135.5 187.5H110.5L107.5 182H8.5V192.5Z" stroke="#7398A0" stroke-width="3"/>
<path d="M224 95.5H277C278.933 95.5 280.5 97.067 280.5 99V197C280.5 198.933 278.933 200.5 277 200.5H224C222.067 200.5 220.5 198.933 220.5 197V99C220.5 97.067 222.067 95.5 224 95.5Z" stroke="#7398A0" stroke-width="3"/>
<path d="M18 93V181" stroke="#7398A0" stroke-width="3"/>
<path d="M237.5 95.5V40C237.5 37.2386 235.261 35 232.5 35H117" stroke="#7398A0" stroke-width="3"/>
<path d="M115.5 61C117.9 61 153.833 61 171.5 61M115.5 61H171.5" stroke="#7398A0" stroke-width="3"/>
<path d="M116 72C120.5 72 187.875 72 221 72M116 72H221" stroke="#7398A0" stroke-width="3"/>
<path d="M83 93C84.6286 93 109.012 93 121 93M83 93H121" stroke="#7398A0" stroke-width="3"/>
<path d="M58 103C59.6286 103 84.0119 103 96 103M58 103H96" stroke="#7398A0" stroke-width="3"/>
<path d="M64 114C66.4429 114 103.018 114 121 114M64 114H121" stroke="#7398A0" stroke-width="3"/>
<path d="M84 124C86.4429 124 123.018 124 141 124M84 124H141" stroke="#7398A0" stroke-width="3"/>
<path d="M107 133C109.443 133 146.018 133 164 133M107 133H164" stroke="#7398A0" stroke-width="3"/>
<path d="M45 133C47.4429 133 84.0179 133 102 133M45 133H102" stroke="#7398A0" stroke-width="3"/>
<path d="M154 144C156.443 144 193.018 144 211 144M154 144H211" stroke="#7398A0" stroke-width="3"/>
<path d="M84 144C86.4429 144 123.018 144 141 144M84 144H141" stroke="#7398A0" stroke-width="3"/>
<path d="M52 156C54.4429 156 91.0179 156 109 156M52 156H109" stroke="#7398A0" stroke-width="3"/>
<path d="M125 156C127.443 156 164.018 156 182 156M125 156H182" stroke="#7398A0" stroke-width="3"/>
<path d="M125 93C128.3 93 177.708 93 202 93M125 93H202" stroke="#7398A0" stroke-width="3"/>
<path d="M207 93C207.6 93 216.583 93 221 93M207 93H221" stroke="#7398A0" stroke-width="3"/>
<path d="M109 103C109.6 103 118.583 103 123 103M109 103H123" stroke="#7398A0" stroke-width="3"/>
<path d="M109 103C109.6 103 118.583 103 123 103M109 103H123" stroke="#7398A0" stroke-width="3"/>
<path d="M66 124C66.6 124 75.5833 124 80 124M66 124H80" stroke="#7398A0" stroke-width="3"/>
<path d="M127 114C127.6 114 136.583 114 141 114M127 114H141" stroke="#7398A0" stroke-width="3"/>
<path d="M146 114C147.457 114 169.274 114 180 114M146 114L180 114" stroke="#7398A0" stroke-width="3"/>
<path d="M246 58H376.5" stroke="#7398A0" stroke-width="3"/>
<path d="M242.5 103.5H265" stroke="#7398A0" stroke-width="3"/>
<path d="M234 115H271V132H234V115Z" stroke="#7398A0" stroke-width="2"/>
<path d="M295 137H322V172H295V137Z" stroke="#7398A0" stroke-width="2"/>
<path d="M328 137H355V172H328V137Z" stroke="#7398A0" stroke-width="2"/>
<path d="M286.5 200H368.5M368.5 200H386.5C389.261 200 391.5 197.761 391.5 195V142C391.5 139.239 389.261 137 386.5 137H373.5C370.739 137 368.5 139.239 368.5 142V200Z" stroke="#7398A0" stroke-width="3"/>
<path d="M384.5 131V32M384.5 32L375.59 17.1498C374.615 15.5258 374.642 13.4907 375.659 11.8929L380.379 4.47565C382.319 1.42697 386.753 1.37981 388.758 4.38653L393.704 11.8064C394.797 13.4454 394.825 15.5731 393.777 17.2408L384.5 32Z" stroke="#7398A0" stroke-width="3"/>
<path d="M399.744 115V74.8045M399.744 74.8045L395.494 71.9935C392.456 69.9848 392.516 65.5069 395.606 63.5802L397.159 62.6118C398.747 61.6219 400.754 61.6011 402.362 62.558L403.992 63.5281C407.199 65.4371 407.26 70.0602 404.103 72.0527L399.744 74.8045Z" stroke="#7398A0" stroke-width="3"/>
<path d="M395.5 201.5H531.5" stroke="#7398A0" stroke-width="3"/>
<path d="M412.5 200.5V183.5C412.5 180.739 414.739 178.5 417.5 178.5H418.5C421.261 178.5 423.5 180.739 423.5 183.5V200.5" stroke="#7398A0" stroke-width="3"/>
<path d="M428 200V183C428 180.239 430.239 178 433 178H434C436.761 178 439 180.239 439 183V200" stroke="#7398A0" stroke-width="3"/>
<path d="M444 200V183C444 180.239 446.239 178 449 178H450C452.761 178 455 180.239 455 183V200" stroke="#7398A0" stroke-width="3"/>
<path d="M450.526 140.923L461 147.029L450.474 153.047L450.526 140.923Z" stroke="#7398A0" stroke-width="3"/>
<path d="M478.5 149C478.5 138.783 486.783 130.5 497 130.5C507.217 130.5 515.5 138.783 515.5 149V152.359C515.5 157.46 513.394 162.334 509.679 165.83L509.045 166.427C507.74 167.655 507 169.368 507 171.16V190.148C507 190.768 506.835 191.377 506.523 191.912L505.151 194.264C504.524 195.339 503.373 196 502.128 196H492.5C491.398 196 490.361 195.481 489.7 194.6L487.7 191.933C487.246 191.327 487 190.591 487 189.833V171.16C487 169.368 486.26 167.655 484.955 166.427L484.321 165.83C480.606 162.334 478.5 157.46 478.5 152.359V149Z" stroke="#7398A0" stroke-width="3"/>
<path d="M481.5 175.5H511.5M481.5 175.5H511.5" stroke="#7398A0" stroke-width="3"/>
<path d="M482 182H512M482 182H512" stroke="#7398A0" stroke-width="3"/>
<path d="M482 189H512M482 189H512" stroke="#7398A0" stroke-width="3"/>
<path d="M53.2968 39.5939L69.9975 48.7639L53.7057 58.6421L53.2968 39.5939Z" fill="#C4C4C4" stroke="#7398A0" stroke-width="3"/>
<path d="M424.5 78.5V45.5C424.5 42.7386 426.739 40.5 429.5 40.5H477C479.761 40.5 482 42.7386 482 45.5V56" stroke="#7398A0" stroke-width="3"/>
<path d="M432 75H481" stroke="#7398A0" stroke-width="3"/>
</svg>
